<svg width="192" height="197" viewBox="0 0 192 197" fill="none" xmlns="http://www.w3.org/2000/svg">
  <rect width="192" height="197" rx="16" fill="#F3F4F6"/>
  <!-- Head -->
  <circle cx="96" cy="66" r="44" fill="#FFD7B5" />
  <!-- Hair -->
  <path d="M52 64c0-22 18-40 44-40s44 18 44 40v12c0 0-6-14-44-14S52 76 52 76V64z" fill="#6B7280" />
  <!-- Eyes -->
  <circle cx="80" cy="68" r="4" fill="#111827" />
  <circle cx="112" cy="68" r="4" fill="#111827" />
  <!-- Mouth -->
  <path d="M82 86c4 6 10 6 14 0" stroke="#7C3AED" stroke-width="3" stroke-linecap="round" stroke-linejoin="round" fill="none"/>
  <!-- Body -->
  <rect x="48" y="110" width="96" height="58" rx="8" fill="#60A5FA" />
  <!-- Simple collar -->
  <path d="M48 120c20 12 44 12 48 12s28 0 48-12" stroke="#BFDBFE" stroke-width="3" stroke-linecap="round"/>
</svg>
