<svg width="192" height="215" viewBox="0 0 192 215" fill="none" xmlns="http://www.w3.org/2000/svg">
  <rect width="192" height="215" rx="18" fill="#F8FAFC"/>
  <!-- Head -->
  <circle cx="96" cy="70" r="48" fill="#C7F9D6" />
  <!-- Hair (ragged) -->
  <path d="M56 66c10-18 28-26 40-26s30 8 40 26v8c0 0-10-8-40-8s-40 8-40 8v-8z" fill="#6EE7B7"/>
  <!-- Eyes (staggered) -->
  <circle cx="80" cy="72" r="6" fill="#052E16" />
  <circle cx="112" cy="76" r="5" fill="#052E16" />
  <!-- Mouth (stitch) -->
  <path d="M78 94c6 6 18 6 24 0" stroke="#065F46" stroke-width="3" stroke-linecap="round" fill="none"/>
  <path d="M92 92v8" stroke="#065F46" stroke-width="2"/>
  <!-- Body -->
  <rect x="48" y="118" width="96" height="72" rx="10" fill="#9AE6B4" stroke="#34D399" stroke-width="2"/>
  <!-- Patch detail -->
  <rect x="60" y="140" width="20" height="16" rx="4" fill="#34D399"/>
  <rect x="112" y="140" width="16" height="12" rx="3" fill="#34D399"/>
</svg>
